<?xml version="1.0" encoding="UTF-8"?>
<svg width="160px" height="80px" viewBox="0 0 160 80" version="1.1" xmlns="http://www.w3.org/2000/svg" xmlns:xlink="http://www.w3.org/1999/xlink">
    <!-- Generator: Sketch 42 (36781) - http://www.bohemiancoding.com/sketch -->
    <title>LOGO</title>
    <desc>Created with Sketch.</desc>
    <defs></defs>
    <g id="Symbols" stroke="none" stroke-width="1" fill="none" fill-rule="evenodd">
        <g id="Desktop-Nav-(V2)-Food-Open---Entrees-Open" transform="translate(-17.000000, -39.000000)">
            <g transform="translate(0.000000, -1.000000)" id="Nav-Bar">
                <g>
                    <g transform="translate(0.000000, 2.000000)">
                        <g id="LOGO" transform="translate(17.000000, 38.000000)">
                            <path d="M40.0474667,75.9225333 C20.2661333,75.9225333 4.1708,59.8258667 4.1708,40.0465333 C4.1708,20.2645333 20.2661333,4.16986667 40.0474667,4.16986667 C59.8301333,4.16986667 75.9248,20.2645333 75.9248,40.0465333 C75.9248,59.8258667 59.8301333,75.9225333 40.0474667,75.9225333" id="Fill-1" fill="#FFD200"></path>
                            <path d="M40.0474667,75.9225333 C20.2661333,75.9225333 4.1708,59.8258667 4.1708,40.0465333 C4.1708,20.2645333 20.2661333,4.16986667 40.0474667,4.16986667 C59.8301333,4.16986667 75.9248,20.2645333 75.9248,40.0465333 C75.9248,59.8258667 59.8301333,75.9225333 40.0474667,75.9225333 M40.0474667,0.131866667 C18.0028,0.131866667 0.133466667,18.0018667 0.133466667,40.0465333 C0.133466667,62.0892 18.0028,79.9605333 40.0474667,79.9605333 C62.0914667,79.9605333 79.9608,62.0892 79.9608,40.0465333 C79.9608,18.0018667 62.0914667,0.131866667 40.0474667,0.131866667" id="Fill-3" fill="#000000"></path>
                            <path d="M65.373,45.6132667 C67.089,42.9912667 67.2883333,37.9052667 66.899,36.2099333 C66.825,36.1952667 61.8463333,33.4752667 50.4443333,29.6619333 C51.6423333,29.1179333 52.671,28.0412667 52.7003333,27.9899333 C52.5496667,27.6306 49.153,25.3666 47.509,24.8939333 C50.0143333,23.2832667 54.3696667,18.5959333 55.229,17.6372667 C52.567,16.4292667 49.1116667,16.0879333 48.1703333,16.0572667 C50.179,14.4772667 54.005,11.9319333 55.5776667,11.5006 C55.5283333,11.4492667 53.3203333,10.3559333 49.789,10.2726 C44.435,10.1452667 41.5896667,11.3326 37.661,13.3432667 C37.6376667,13.3506 39.1603333,9.38993333 39.397,8.6646 C38.0476667,9.34326667 36.5236667,10.2139333 35.333,11.1466 C32.8603333,13.0552667 30.5623333,14.6432667 28.6976667,17.0732667 C27.371,18.7566 27.6843333,20.7826 27.9203333,21.3492667 C28.2656667,22.3139333 28.7156667,23.3012667 28.917,24.2999333 C29.3003333,26.1932667 29.077,26.2512667 28.9456667,26.2752667 C27.5243333,26.5379333 26.337,27.5212667 25.3276667,28.7626 C24.1483333,30.2859333 23.4923333,31.9872667 22.979,33.8312667 C22.5676667,33.6819333 20.8943333,33.0139333 18.079,33.0139333 C12.9416667,33.0139333 11.0496667,36.5212667 10.7083333,37.4579333 C9.259,41.4979333 11.4356667,46.8686 11.4356667,46.8686 C11.437,46.8666 11.6563333,50.7779333 12.5003333,53.1139333 C12.795,54.0006 14.323,54.1659333 15.3056667,54.2306 C17.8543333,54.3432667 17.6443333,57.8286 16.9683333,59.6939333 C16.9603333,59.7166 20.4056667,59.1032667 20.7123333,55.6932667 C20.715,55.6692667 22.2503333,56.6619333 22.7496667,57.5486 C22.7643333,57.5486 24.329,55.8039333 23.6716667,53.4992667 C26.191,56.5252667 26.6976667,62.0592667 26.7483333,62.0459333 C27.3883333,61.5626 28.4423333,60.2626 28.4423333,60.2626 C28.4423333,60.2626 28.0256667,63.2372667 27.337,63.3506 C26.6483333,63.4652667 25.8603333,63.5972667 25.8603333,63.5972667 L23.557,66.4939333 L30.263,66.4939333 C30.3296667,64.8792667 31.3023333,61.3679333 31.7356667,60.2899333 C32.2723333,60.9532667 33.5023333,61.8966 33.535,61.9339333 C33.5936667,61.8492667 33.4583333,60.0226 35.289,55.7826 C36.1023333,57.0699333 36.7016667,57.8732667 36.7403333,57.8666 C41.6743333,56.8519333 52.6943333,49.9492667 52.8103333,49.8492667 C53.071,50.1879333 55.8963333,54.4626 59.855,55.8699333 C58.949,58.6919333 54.135,63.2532667 53.6456667,63.3612667 C53.5423333,63.3832667 52.253,63.6179333 52.253,63.6179333 L49.953,66.4939333 L57.0276667,66.4939333 C57.5503333,63.0986 63.2876667,59.0346 64.7963333,56.0252667 C65.1383333,55.4966 64.783,54.9786 64.7383333,54.8692667 C63.8056667,53.6006 63.571,52.9052667 63.6776667,51.2499333 C63.617,49.1332667 64.517,47.3519333 65.373,45.6132667" id="Fill-5" fill="#000000"></path>
                            <path d="M15.7278667,44.6790667 C14.8265333,44.7130667 13.9798667,45.1797333 13.5898667,45.9984 L13.5898667,46.5050667 L16.0205333,45.6624 L16.4312,44.8197333 C16.2372,44.6944 15.9772,44.6784 15.7278667,44.6790667" id="Fill-7" fill="#FFFFFF"></path>
                            <path d="M36.4368,53.3236 C37.1741333,54.4929333 37.7208,55.2222667 37.7541333,55.2156 C42.2328,54.2962667 50.2788,49.2542667 50.3834667,49.1609333 L36.4368,53.3236 Z" id="Fill-9" fill="#9FA1A3"></path>
                            <path d="M42.0384,25.3665333 L39.1217333,27.2932 C39.1217333,27.2932 43.4104,27.1125333 48.4690667,28.3445333 C48.4690667,28.3445333 46.0097333,26.0772 42.0384,25.3665333" id="Fill-11" fill="#9FA1A3"></path>
                            <path d="M50.4563333,18.8105333 C43.2476667,19.1545333 40.2116667,21.1045333 40.2116667,21.1045333 L42.3816667,18.4838667 C43.7476667,16.6912 46.0043333,14.4092 49.507,12.1685333 C36.349,17.4485333 33.6403333,21.2612 33.6403333,21.2612 L34.3476667,18.0465333 C34.4276667,17.4685333 35.2216667,14.6725333 35.3536667,13.9905333 C31.0276667,17.5198667 29.8423333,19.7805333 30.3523333,21.5045333 C30.695,22.6672 31.9463333,25.2712 31.9916667,27.0578667 C32.0403333,29.1138667 31.3196667,30.9365333 30.7236667,33.2912 C30.7236667,33.2912 38.3283333,35.7585333 42.413,34.7745333 C42.413,34.7745333 40.6223333,33.3572 40.5856667,32.5565333 C45.785,31.0932 48.4163333,28.3065333 48.4663333,28.3432 C48.4676667,28.3432 48.4683333,28.3445333 48.4703333,28.3445333 C43.4116667,27.1125333 39.1216667,27.2932 39.1216667,27.2932 L42.0383333,25.3665333 L42.037,25.3678667 C42.0356667,25.3665333 42.0336667,25.3665333 42.0336667,25.3665333 C44.8836667,23.1972 48.175,21.7118667 50.4563333,18.8105333" id="Fill-13" fill="#FFFFFF"></path>
                            <path d="M34.3476,18.0462 C39.2669333,14.9862 43.4462667,13.5082 46.1642667,12.8028667 C48.2789333,12.2522 49.5069333,12.1688667 49.5069333,12.1688667 C36.3496,17.4495333 33.6402667,21.2615333 33.6402667,21.2615333 L34.3476,18.0462 Z" id="Fill-15" fill="#9FA1A3"></path>
                            <path d="M42.3886667,18.4765333 C42.3886667,18.4765333 46.7406667,18.0058667 50.456,18.8112 C43.2473333,19.1545333 40.2113333,21.1045333 40.2113333,21.1045333 L42.3886667,18.4765333" id="Fill-17" fill="#9FA1A3"></path>
                            <path d="M17.0664,41.6855333 C18.4610667,41.1075333 19.6770667,38.9535333 20.0804,36.9068667 C20.0584,35.4942 19.8297333,34.4042 19.8297333,34.4042 C19.8504,34.6335333 19.1497333,40.0288667 15.1330667,40.1842 C14.1950667,40.2195333 13.8304,40.3962 13.6977333,41.4968667 C13.6824,41.6335333 13.6857333,41.7728667 13.7057333,41.9082 L13.7057333,41.9108667 L13.7057333,41.9082 C14.6744,42.1222 15.7644,42.2248667 17.0664,41.6855333" id="Fill-19" fill="#FFFFFF"></path>
                            <path d="M14.7187333,43.1894667 C14.7187333,43.1894667 18.0880667,43.6541333 19.2034,41.4981333 C20.1654,39.7508 20.0834,37.1261333 20.0807333,36.9094667 L20.0807333,36.9074667 C19.6767333,38.9534667 18.4614,41.1074667 17.0660667,41.6854667 C15.7634,42.2248 14.6747333,42.1214667 13.7060667,41.9081333 L13.7060667,41.9108 L13.7060667,41.9114667 L13.7060667,41.9134667 C13.7147333,41.9888 13.8414,42.9528 14.7187333,43.1894667" id="Fill-21" fill="#9FA1A3"></path>
                            <path d="M88.2102667,25.3404667 L88.2102667,15.5131333 L86.6669333,12.8691333 L93.3616,12.8691333 C94.3362667,12.8691333 95.4276,12.8544667 96.2722667,13.3798 C97.2036,13.9444667 97.5082667,14.9931333 97.5082667,16.0264667 C97.5082667,17.4524667 96.9422667,18.4278 95.5442667,18.8204667 L95.5442667,18.8504667 C97.1456,19.0524667 97.6969333,20.3338 97.6969333,21.7898 C97.6969333,22.8078 97.4649333,23.9431333 96.6502667,24.5984667 C95.7622667,25.3251333 94.6269333,25.3404667 93.5362667,25.3404667 L88.2102667,25.3404667 Z M92.0962667,17.7531333 L92.3582667,17.7531333 C93.2156,17.7531333 93.6522667,17.5651333 93.6522667,16.6344667 C93.6522667,15.7164667 93.1716,15.5131333 92.3582667,15.5131333 L92.0962667,15.5131333 L92.0962667,17.7531333 Z M92.0962667,22.6904667 L92.4296,22.6904667 C93.3756,22.6904667 93.7109333,22.3138 93.7109333,21.3238 C93.7109333,20.3624667 93.3756,19.9851333 92.4296,19.9851333 L92.0962667,19.9851333 L92.0962667,22.6904667 Z" id="Fill-23" fill="#000000"></path>
                            <path d="M144.492133,19.2858 L144.492133,21.3091333 C144.492133,22.0944667 144.505467,22.6911333 143.517467,22.6911333 L143.1388,22.6911333 L143.1388,12.8691333 L138.481467,12.8691333 L139.253467,15.5131333 L139.253467,25.3404667 L147.912133,25.3404667 L147.912133,19.2858 L144.492133,19.2858 Z" id="Fill-25" fill="#000000"></path>
                            <path d="M158.244133,21.7324 C158.244133,24.8170667 156.3528,25.5877333 153.601467,25.5877333 C150.852133,25.5877333 148.959467,24.8170667 148.959467,21.7324 L148.959467,16.4770667 C148.959467,13.3937333 150.852133,12.6217333 153.601467,12.6217333 C156.3528,12.6217333 158.244133,13.3937333 158.244133,16.4770667 L158.244133,21.7324 Z M152.8448,21.7170667 C152.8448,21.8050667 152.802133,22.6917333 153.601467,22.6917333 C154.402133,22.6917333 154.359467,21.8050667 154.359467,21.7170667 L154.359467,16.2737333 C154.359467,16.1870667 154.402133,15.5184 153.601467,15.5184 C152.802133,15.5184 152.8448,16.3910667 152.8448,16.4770667 L152.8448,21.7170667 Z" id="Fill-27" fill="#000000"></path>
                            <path d="M128.027333,17.1621333 L128.027333,12.8694667 L118.678,12.8741333 L119.453333,15.5161333 L119.455333,25.3408 L119.46,25.3408 L119.46,25.3441333 L119.469333,25.3408 L123.341333,25.3408 L123.341333,20.6281333 L125.814667,20.6281333 L125.814667,17.8901333 L123.341333,17.8901333 L123.341333,15.5174667 C124.083333,15.4588 124.403333,15.5908 124.549333,15.8674667 C124.708667,16.1441333 124.665333,16.5801333 124.665333,17.1621333 L128.027333,17.1621333 Z" id="Fill-29" fill="#000000"></path>
                            <path d="M117.930333,17.1621333 L117.930333,12.8694667 L108.581667,12.8741333 L109.356333,15.5161333 L109.360333,25.3408 L109.364333,25.3408 L109.364333,25.3441333 L109.373667,25.3408 L113.245667,25.3408 L113.245667,20.6281333 L115.719,20.6281333 L115.719,17.8901333 L113.245667,17.8901333 L113.245667,15.5174667 C113.987,15.4588 114.306333,15.5908 114.452333,15.8674667 C114.612333,16.1441333 114.569667,16.5801333 114.569667,17.1621333 L117.930333,17.1621333 Z" id="Fill-31" fill="#000000"></path>
                            <path d="M104.021467,12.8691333 L104.021467,21.8038 C104.021467,22.0504667 103.9628,22.6911333 103.249467,22.6911333 C102.538133,22.6911333 102.4788,22.0504667 102.4788,21.8038 L102.4788,12.8691333 L97.8228,12.8691333 L98.5948,15.5138 L98.5948,21.3538 C98.6234667,22.6778 98.7254667,23.7251333 99.7874667,24.6558 C100.704133,25.4564667 102.1308,25.5878 103.249467,25.5878 C104.371467,25.5878 105.7968,25.4564667 106.713467,24.6558 C107.7748,23.7251333 107.877467,22.6778 107.9068,21.3538 L107.9068,12.8691333 L104.021467,12.8691333 Z" id="Fill-33" fill="#000000"></path>
                            <path d="M136.098267,12.8691333 L128.7536,12.8691333 L129.530933,15.5138 L127.8296,25.3404667 L131.390933,25.3404667 L131.8296,22.6911333 L134.220267,22.6911333 L134.696267,25.3404667 L138.256933,25.3404667 L136.098267,12.8691333 Z M132.374933,19.6518 L133.0156,15.5204667 L133.0716,15.5204667 L133.712267,19.6518 L132.374933,19.6518 Z" id="Fill-35" fill="#000000"></path>
                            <path d="M134.4088,37.9564 L134.4088,41.4564 C134.4088,42.8170667 134.432133,43.8484 132.7208,43.8484 L132.065467,43.8484 L132.065467,26.8510667 L124.005467,26.8510667 L125.341467,31.4264 L125.341467,48.4310667 L140.326133,48.4310667 L140.326133,37.9564 L134.4088,37.9564 Z" id="Fill-37" fill="#000000"></path>
                            <polygon id="Fill-39" fill="#000000" points="116.3196 31.4264 114.984267 26.8510667 123.044267 26.8510667 123.044267 48.4317333 116.3196 48.4317333"></polygon>
                            <path d="M150.7838,26.8509333 C152.6238,26.8509333 154.738467,26.8769333 156.274467,28.0596 C158.037133,29.4462667 158.213133,31.4096 158.213133,33.4742667 L158.213133,41.5569333 C158.213133,43.6722667 158.1118,45.3089333 156.475133,46.8469333 C154.9398,48.3062667 153.0258,48.4316 150.9858,48.4316 L142.323133,48.4316 L142.323133,31.4262667 L140.987133,26.8509333 L150.7838,26.8509333 Z M149.047133,43.8742667 L149.576467,43.8742667 C151.0378,43.8742667 151.4898,43.3442667 151.4898,41.7836 L151.4898,33.6489333 C151.4898,32.0889333 151.0378,31.4342667 149.576467,31.4342667 L149.047133,31.4342667 L149.047133,43.8742667 Z" id="Fill-41" fill="#000000"></path>
                            <polygon id="Fill-43" fill="#000000" points="107.080667 26.8509333 105.629333 37.9576 105.578667 37.9576 104.114667 26.8509333 99.3906667 26.8509333 97.9253333 37.9576 97.8746667 37.9576 96.4233333 26.8509333 86.6653333 26.8509333 90.1766667 31.4262667 93.292 48.4329333 99.6373333 48.4329333 101.728 40.9469333 101.775333 40.9469333 103.866667 48.4329333 110.210667 48.4329333 114.166 26.8509333"></polygon>
                            <polygon id="Fill-45" fill="#000000" points="102.932933 49.9420667 101.7756 58.7914 101.734933 58.7914 100.5676 49.9420667 96.8042667 49.9420667 95.6369333 58.7914 95.5976 58.7914 94.4402667 49.9420667 86.6662667 49.9420667 89.4629333 53.5880667 91.9449333 67.1387333 97.0009333 67.1387333 98.6669333 61.1754 98.7056 61.1754 100.372267 67.1387333 105.426267 67.1387333 108.5776 49.9420667"></polygon>
                            <polygon id="Fill-47" fill="#000000" points="110.2122 53.5859333 109.147533 49.9419333 115.565533 49.9419333 115.565533 67.1266 110.2122 67.1266"></polygon>
                            <polygon id="Fill-49" fill="#000000" points="125.532533 57.7024667 125.5732 57.7024667 125.5732 49.9418 129.9052 49.9418 129.9052 67.1264667 124.7112 67.1264667 121.5212 59.4071333 121.4832 59.4071333 121.4832 67.1264667 117.311867 67.1264667 117.311867 53.5851333 116.2472 49.9418 122.545867 49.9418"></polygon>
                            <path d="M143.916667,55.918 L138.762,55.918 L138.762,55.5373333 C138.762,54.776 138.923333,53.592 137.740667,53.592 C136.736667,53.592 136.657333,54.5346667 136.657333,55.276 L136.657333,62.356 C136.657333,62.536 136.736667,63.4766667 137.740667,63.4766667 C138.923333,63.4766667 138.762,62.2933333 138.762,61.5126667 L138.762,60.5033333 L137.7,56.8606667 L143.916667,56.8606667 L143.916667,65.6033333 C142.232667,67.1266667 139.686,67.47 137.5,67.47 C135.956,67.47 134.191333,67.3493333 132.968,66.3246667 C131.383333,64.9813333 131.302667,63.4166667 131.302667,61.5333333 L131.302667,54.996 C131.302667,53.4713333 131.483333,51.9873333 132.727333,50.944 C133.969333,49.8806667 135.674667,49.6006667 137.259333,49.6006667 C139.604667,49.6006667 142.031333,50.1426667 143.916667,51.586 L143.916667,55.918 Z" id="Fill-51" fill="#000000"></path>
                            <path d="M152.723267,55.4186 C152.723267,54.6532667 152.7046,53.5919333 151.661267,53.5919333 C150.979267,53.5919333 150.619267,53.8119333 150.619267,54.4546 C150.619267,54.7959333 150.659267,55.1359333 150.9386,55.4186 C151.239933,55.7379333 152.001933,55.9772667 152.443267,56.0979333 C153.7286,56.4392667 155.451267,56.9019333 156.5346,57.6226 C157.155933,58.0432667 157.6166,58.5459333 157.857933,59.2659333 C158.137933,60.0072667 158.2586,60.8312667 158.2586,61.6319333 L158.2586,61.7126 C158.2586,65.0212667 156.7946,67.4692667 151.681933,67.4692667 C149.4946,67.4692667 147.1886,67.0466 145.4446,65.6632667 L145.4446,61.0526 L150.679267,61.0526 C150.679267,62.0746 150.659267,62.5552667 150.839267,62.9172667 C151.019933,63.2579333 151.399933,63.4772667 151.801933,63.4772667 C152.5226,63.4772667 152.8446,63.0579333 152.8446,62.4346 C152.8446,60.6712667 151.741267,60.5279333 150.257267,60.1686 C147.011933,59.3679333 145.185267,58.5839333 145.185267,54.8759333 L145.185267,54.4939333 C145.263933,52.6486 145.565267,51.7259333 146.967267,50.6646 C148.109267,49.8026 149.7766,49.6006 151.3806,49.6006 C153.707933,49.6006 155.771933,50.0639333 157.717267,51.4052667 L157.717267,55.4572667 L152.723267,55.4572667 L152.723267,55.4186 Z" id="Fill-53" fill="#000000"></path>
                            <path d="M158.325467,66.3574 L158.4668,66.3574 C158.5868,66.3574 158.628133,66.3194 158.628133,66.2414 C158.628133,66.1640667 158.5788,66.1380667 158.4588,66.1380667 L158.325467,66.1380667 L158.325467,66.3574 Z M158.325467,66.8380667 L158.162133,66.8380667 L158.162133,66.0107333 L158.475467,66.0107333 C158.682133,66.0107333 158.796133,66.0760667 158.796133,66.2560667 C158.796133,66.4067333 158.703467,66.4667333 158.596133,66.4767333 L158.796133,66.8380667 L158.615467,66.8380667 L158.4288,66.4847333 L158.325467,66.4847333 L158.325467,66.8380667 Z M158.4568,65.8420667 C158.1428,65.8420667 157.8948,66.0847333 157.8948,66.4254 C157.8948,66.7647333 158.1428,67.0087333 158.4568,67.0087333 C158.767467,67.0087333 159.0188,66.7647333 159.0188,66.4254 C159.0188,66.0847333 158.767467,65.8420667 158.4568,65.8420667 L158.4568,65.8420667 Z M157.7008,66.4254 C157.7008,65.9767333 158.057467,65.6854 158.4568,65.6854 C158.857467,65.6854 159.214133,65.9767333 159.214133,66.4254 C159.214133,66.8754 158.857467,67.1640667 158.4568,67.1640667 C158.057467,67.1640667 157.7008,66.8754 157.7008,66.4254 L157.7008,66.4254 Z" id="Fill-55" fill="#000000"></path>
                        </g>
                    </g>
                </g>
            </g>
        </g>
    </g>
</svg>