<?xml version="1.0" standalone="no"?>
<!DOCTYPE svg PUBLIC "-//W3C//DTD SVG 20010904//EN"
 "http://www.w3.org/TR/2001/REC-SVG-20010904/DTD/svg10.dtd">
<svg version="1.0" xmlns="http://www.w3.org/2000/svg"
 width="800.000000pt" height="800.000000pt" viewBox="0 0 800.000000 800.000000"
 preserveAspectRatio="xMidYMid meet">
<metadata>
Created by potrace 1.15, written by Peter Selinger 2001-2017
</metadata>
<g transform="translate(0.000000,800.000000) scale(0.100000,-0.100000)"
fill="#000000" stroke="none">
<path d="M7195 5670 c-28 -18 -30 -18 -49 -2 -11 9 -16 12 -13 6 5 -8 -2 -11
-17 -10 -13 0 -22 4 -19 9 9 15 -14 6 -35 -13 -26 -25 -28 -25 -35 -1 -3 13
-12 18 -28 16 -78 -10 -100 -14 -110 -21 -8 -5 -10 -2 -5 7 4 8 0 5 -10 -6
-13 -16 -15 -16 -11 -3 5 13 -1 17 -26 20 -19 2 -37 -3 -43 -11 -6 -7 -22 -15
-36 -16 -21 -2 -26 1 -23 15 3 13 -1 16 -16 13 -10 -3 -19 -12 -19 -19 0 -21
-20 -17 -21 4 0 10 -3 12 -6 5 -7 -18 -33 -16 -33 2 0 9 -6 12 -16 8 -13 -5
-13 -7 -2 -14 7 -5 10 -9 6 -10 -27 -5 -36 -3 -58 11 -13 8 -21 10 -17 3 11
-17 -14 -28 -27 -12 -13 16 -66 24 -66 10 0 -6 7 -7 17 -4 11 4 14 3 9 -5 -11
-19 -26 -14 -36 11 -6 16 -9 18 -9 5 -1 -23 -39 -32 -75 -18 -15 5 -32 7 -38
4 -7 -5 -8 -2 -3 6 5 8 3 11 -6 8 -8 -3 -13 -14 -12 -24 1 -10 0 -14 -3 -8 -2
6 -16 9 -29 6 -16 -3 -27 1 -31 11 -3 9 -12 13 -20 10 -9 -3 -13 -11 -11 -18
6 -14 -25 -16 -34 -3 -9 14 -69 21 -69 9 0 -6 -3 -10 -7 -9 -51 11 -345 -116
-438 -189 -27 -21 -66 -49 -85 -60 -19 -12 -48 -36 -63 -53 -16 -16 -33 -30
-38 -30 -11 0 -23 -10 -77 -60 -20 -19 -55 -48 -78 -65 -76 -55 -207 -190
-201 -208 2 -6 -17 -29 -42 -50 -25 -21 -59 -51 -75 -65 -17 -15 -26 -21 -21
-13 5 10 4 12 -4 7 -6 -4 -10 -13 -9 -20 4 -15 -47 -76 -63 -76 -7 0 -9 -3 -6
-7 10 -9 -114 -132 -149 -147 -17 -8 -60 -40 -94 -72 -135 -125 -219 -208
-215 -212 2 -2 14 5 26 17 13 12 26 21 30 21 15 0 -23 -60 -54 -86 -18 -14
-56 -48 -84 -75 -29 -27 -53 -46 -53 -42 0 4 -15 -14 -32 -39 -36 -49 -92
-101 -101 -92 -3 3 -22 -21 -42 -53 -21 -32 -51 -74 -68 -93 -61 -71 -177
-191 -184 -191 -15 0 -114 -104 -170 -177 -30 -40 -70 -89 -89 -110 -20 -20
-46 -57 -59 -82 -13 -25 -31 -54 -39 -65 -31 -39 -66 -90 -75 -110 -5 -11 -23
-36 -40 -54 -17 -18 -31 -35 -31 -37 0 -2 -24 -40 -52 -83 -74 -112 -121 -188
-121 -198 0 -4 -6 -12 -13 -18 -15 -11 -71 -106 -106 -177 -13 -26 -26 -48
-29 -48 -12 0 8 64 35 110 14 25 35 63 47 85 12 21 37 61 55 88 19 27 34 53
34 57 0 4 16 27 35 51 19 24 35 51 35 60 0 9 26 52 58 95 32 44 71 101 86 128
15 26 36 56 46 66 10 10 19 22 21 27 7 17 114 164 174 239 33 42 82 104 108
137 27 34 65 80 86 102 21 22 40 46 42 52 5 14 49 70 109 137 25 28 56 64 70
80 l25 29 -35 -26 c-69 -52 -200 -200 -307 -347 -63 -86 -99 -129 -185 -220
-43 -46 -68 -65 -53 -40 7 12 -5 13 -23 2 -7 -5 -10 -16 -6 -27 5 -13 3 -16
-7 -13 -16 5 -25 -3 -58 -52 -13 -19 -29 -39 -35 -45 -23 -20 -76 -93 -76
-104 0 -5 -13 -26 -30 -44 -17 -19 -30 -40 -30 -46 0 -6 -5 -11 -11 -11 -16 0
-38 -31 -39 -52 0 -10 -6 -18 -12 -18 -12 0 -68 -70 -68 -85 0 -9 -53 -79 -67
-88 -30 -19 -114 -154 -188 -302 -84 -167 -176 -328 -183 -321 -2 3 1 21 8 40
12 36 21 126 13 126 -6 0 -33 -28 -33 -34 0 -9 -69 -114 -79 -121 -13 -7 15
56 74 170 68 131 48 113 -26 -22 -35 -65 -87 -158 -117 -208 -29 -49 -78 -139
-108 -200 -30 -60 -59 -117 -64 -125 -6 -8 -15 -28 -21 -45 -8 -23 -12 -26
-20 -15 -8 13 -10 13 -20 0 -8 -11 -9 -6 -4 20 l6 35 -26 -30 c-13 -16 -25
-28 -25 -25 0 20 34 109 68 180 23 47 55 117 72 155 17 39 42 92 55 118 19 40
21 47 7 42 -14 -5 -14 -4 0 12 8 10 13 23 11 30 -2 6 5 30 16 52 23 45 27 66
10 55 -7 -4 -10 -3 -7 2 2 5 21 45 41 89 104 225 370 676 438 741 17 16 29 38
29 53 0 24 -1 24 -15 5 -8 -10 -14 -14 -14 -9 0 6 6 18 13 28 14 18 15 17 21
-3 6 -19 9 -18 36 16 16 20 29 40 29 43 0 3 -7 -3 -15 -13 -8 -10 -25 -20 -37
-20 -13 -1 -29 -5 -35 -9 -14 -9 -18 14 -5 27 4 4 7 11 7 14 0 4 17 36 38 71
21 35 36 65 34 68 -4 4 -154 -198 -213 -286 -16 -25 -48 -73 -70 -105 -21 -32
-43 -66 -49 -75 -5 -9 -29 -43 -51 -76 -23 -33 -52 -80 -64 -104 -12 -24 -26
-49 -31 -55 -6 -6 -57 -94 -114 -195 -57 -101 -106 -186 -110 -189 -3 -3 16
44 42 104 27 60 51 111 54 114 4 3 10 15 13 28 4 12 18 34 32 49 21 23 49 92
40 100 -4 5 -146 -255 -146 -267 0 -5 -6 -13 -13 -17 -24 -15 -176 -339 -252
-540 -13 -35 -35 -82 -48 -105 -13 -24 -34 -71 -47 -105 -13 -34 -27 -60 -31
-57 -12 7 -76 -118 -146 -285 -36 -86 -69 -158 -73 -161 -4 -3 -19 -36 -32
-73 -22 -62 -26 -67 -40 -54 -13 14 -17 12 -31 -13 -10 -15 -17 -33 -17 -39 0
-6 -11 -33 -24 -60 -13 -27 -26 -61 -30 -75 -4 -16 -13 -26 -24 -26 -21 0 -42
-18 -42 -36 0 -6 -10 -33 -22 -60 l-23 -49 -5 40 -6 40 -17 -37 c-9 -21 -17
-40 -17 -43 0 -3 -10 -15 -22 -27 -17 -17 -20 -18 -15 -4 4 10 14 57 23 104 9
48 20 96 25 107 5 11 11 44 14 73 3 30 7 58 10 63 11 16 54 199 61 254 4 38
36 139 54 176 11 20 21 47 23 60 3 13 10 43 16 67 7 23 14 57 16 75 2 17 5 39
8 47 2 8 8 34 12 57 4 24 14 48 21 54 8 6 12 15 9 19 -3 4 7 34 21 66 14 32
33 79 41 104 8 25 36 86 61 135 26 50 46 93 44 97 -2 8 161 355 214 454 34 65
64 124 105 207 18 37 37 67 42 67 5 0 6 8 3 17 -4 10 -4 14 0 10 7 -7 94 152
94 172 0 6 14 33 30 61 17 28 28 55 25 60 -3 5 6 21 19 35 14 15 28 40 31 56
4 17 15 38 25 47 10 10 35 51 55 92 21 41 48 87 62 102 14 14 23 31 20 36 -4
5 9 32 28 60 46 70 47 72 41 72 -2 0 -27 -30 -54 -67 -27 -38 -61 -82 -76 -99
-16 -17 -38 -47 -49 -66 -46 -73 -87 -132 -87 -121 0 5 13 29 30 51 16 23 30
46 30 52 0 5 5 10 10 10 6 0 10 7 10 15 0 16 78 133 120 180 15 17 38 50 52
75 33 57 107 150 120 150 5 0 0 -15 -11 -34 -30 -48 -26 -56 5 -10 15 21 33
43 40 47 8 5 12 12 9 17 -3 5 1 17 10 27 26 29 65 93 65 106 0 7 16 28 35 47
19 19 47 52 62 74 16 23 45 59 66 80 20 22 37 43 37 47 0 4 11 20 25 36 14 15
56 64 92 108 36 44 96 110 132 148 36 37 66 74 66 81 0 8 13 28 28 45 15 17
36 44 45 59 19 29 86 103 200 223 39 41 69 79 65 83 -4 3 18 31 48 62 31 31
45 52 34 48 -15 -5 -11 3 15 32 19 21 27 32 18 25 -15 -11 -18 -11 -18 1 0 8
29 47 65 87 36 40 63 76 60 81 -3 4 -2 10 2 13 5 2 3 3 -3 1 -6 -1 -17 3 -24
9 -9 8 -11 9 -7 1 9 -16 -17 -36 -37 -28 -9 3 -13 10 -10 15 3 5 0 9 -5 9 -6
0 -11 -4 -11 -10 0 -5 -12 -10 -26 -10 -17 0 -23 4 -18 13 5 7 0 6 -11 -3 -11
-9 -16 -10 -11 -2 5 8 0 12 -15 12 -18 0 -19 -2 -9 -15 7 -9 10 -18 6 -22 -3
-4 -13 2 -22 13 -8 10 -13 14 -10 8 3 -6 -1 -11 -9 -11 -8 0 -12 4 -9 9 8 13
-74 2 -92 -12 -10 -9 -14 -9 -14 -1 0 6 5 11 12 11 9 0 9 3 0 12 -9 9 -15 9
-20 3 -4 -6 -37 -10 -74 -10 -38 1 -68 -3 -68 -7 0 -5 -5 -6 -10 -3 -6 4 -7
11 -4 17 4 7 2 8 -5 4 -6 -4 -9 -11 -7 -15 3 -4 -13 -7 -34 -7 -21 1 -38 3
-38 6 1 18 -4 23 -11 11 -6 -10 -13 -10 -29 -2 -18 9 -19 8 -15 -10 5 -19 4
-20 -16 -10 -12 7 -19 17 -15 22 4 7 -1 9 -12 7 -11 -2 -18 -10 -17 -16 4 -17
-22 -15 -37 3 -7 8 -18 15 -24 15 -6 0 -2 -7 8 -15 11 -8 16 -18 12 -22 -4 -4
-11 -1 -15 6 -5 7 -14 10 -20 7 -7 -5 -10 -2 -9 6 2 7 -3 11 -12 9 -8 -2 -43
-3 -77 -3 -56 1 -63 -1 -63 -18 0 -11 -5 -20 -11 -20 -6 0 -9 7 -5 15 4 10 -1
15 -17 16 -52 3 -81 -1 -87 -12 -4 -6 -9 -7 -11 -2 -2 6 -17 13 -34 17 -29 7
-29 7 -10 -8 11 -8 15 -16 9 -16 -5 0 -19 7 -30 15 -22 17 -38 20 -29 5 11
-18 -83 -15 -113 4 -8 5 -21 1 -34 -11 -15 -13 -22 -15 -25 -6 -4 10 -10 10
-25 2 -16 -9 -19 -8 -13 2 6 9 3 11 -9 6 -10 -4 -20 -7 -22 -7 -2 0 -4 -7 -4
-15 0 -8 -5 -15 -11 -15 -6 0 -9 6 -6 14 3 8 -1 20 -9 27 -12 10 -16 9 -21 -9
-7 -29 -21 -28 -25 1 -4 21 -5 21 -18 -5 -15 -31 -23 -34 -42 -15 -19 18 -58
20 -51 1 3 -8 0 -14 -6 -14 -6 0 -11 5 -11 10 0 6 -7 10 -15 10 -8 0 -15 -7
-15 -15 0 -22 -13 -18 -38 10 -12 14 -28 25 -34 24 -10 0 -10 -2 0 -6 21 -8
13 -18 -16 -20 -15 -1 -35 6 -45 15 -10 9 -18 12 -17 7 4 -20 0 -35 -10 -35
-5 0 -10 7 -10 15 0 17 -11 20 -26 5 -6 -6 -15 -5 -24 1 -12 9 -12 10 3 5 10
-3 15 -2 12 3 -3 6 -14 9 -24 8 -27 -2 -16 -20 86 -135 79 -90 141 -156 99
-104 -11 12 -16 25 -13 28 3 3 31 -20 62 -52 44 -46 55 -54 49 -34 -3 14 -12
32 -19 40 -7 8 -15 24 -19 35 -5 16 -1 21 14 22 18 2 21 -3 19 -22 -1 -12 53
-71 78 -85 15 -9 27 -24 29 -34 1 -10 16 -33 31 -50 16 -17 55 -65 88 -106 73
-94 145 -170 162 -170 20 0 16 14 -12 40 -14 13 -25 29 -25 37 0 7 -4 13 -10
13 -28 0 -60 16 -60 31 0 6 4 8 9 4 5 -3 3 8 -5 24 -10 21 -20 28 -31 24 -10
-4 -14 -2 -11 7 2 8 -15 34 -39 59 -40 42 -52 61 -37 61 4 0 13 -8 20 -17 13
-17 14 -17 8 0 -15 42 27 4 112 -100 21 -26 43 -52 49 -58 6 -5 31 -35 56 -65
24 -30 86 -99 137 -153 51 -54 90 -102 87 -107 -9 -15 6 -39 21 -33 10 4 14
-3 14 -23 l-1 -29 -24 28 c-24 27 -48 39 -26 13 6 -7 9 -22 5 -32 -4 -13 -3
-15 3 -6 8 10 12 10 23 -3 12 -14 6 -24 -41 -73 -30 -31 -58 -60 -64 -64 -16
-12 -37 -9 -30 5 4 6 -5 -1 -19 -18 l-26 -30 -44 50 c-24 28 -42 53 -40 56 7
12 -20 54 -77 120 -196 228 -299 350 -329 389 -18 25 -47 59 -63 77 -16 17
-27 36 -23 41 3 5 -3 17 -14 27 -11 10 -20 23 -20 29 0 6 -14 20 -30 31 -16
11 -30 26 -30 34 0 11 3 11 17 0 27 -22 -33 56 -127 164 -61 71 -89 97 -102
94 -12 -4 -18 1 -19 11 0 11 -2 12 -6 5 -6 -16 -35 -17 -51 -1 -10 10 -10 6
-1 -20 6 -17 17 -32 24 -32 12 0 95 -102 95 -117 0 -5 9 -14 20 -21 11 -7 20
-17 20 -23 0 -30 301 -387 321 -381 5 1 14 -9 19 -23 8 -22 105 -136 216 -255
210 -226 233 -254 222 -267 -9 -12 -18 -6 -49 29 -20 24 -40 40 -44 36 -4 -4
9 -24 29 -44 20 -20 36 -40 36 -43 -1 -13 -121 -133 -127 -127 -3 3 2 15 12
26 35 38 9 29 -30 -10 -51 -53 -65 -51 -24 3 33 41 21 38 -32 -11 l-27 -24
-48 64 c-27 35 -69 86 -95 113 -26 28 -47 54 -47 58 1 13 -57 98 -92 136 -17
19 -50 59 -73 90 -23 31 -47 61 -53 66 -6 6 -55 64 -109 130 -54 66 -120 146
-147 177 -26 31 -48 60 -48 65 0 4 -28 40 -63 80 -95 109 -137 161 -137 167 0
3 -10 17 -22 32 -13 14 -32 43 -44 64 -12 22 -25 36 -29 32 -5 -4 -5 1 -2 10
4 12 2 15 -8 12 -8 -3 -12 -13 -9 -22 3 -9 -1 -7 -7 6 -7 13 -18 21 -27 17 -7
-3 -18 -5 -23 -5 -4 0 -6 -8 -2 -17 6 -17 5 -17 -13 -2 -24 20 -54 31 -54 20
0 -4 -20 -5 -45 -1 -25 4 -45 4 -45 0 0 -4 -12 -12 -26 -19 -24 -10 -26 -10
-20 6 5 16 4 15 -9 -1 -12 -16 -15 -17 -15 -4 0 12 -8 15 -30 14 -16 -1 -30 3
-30 8 0 6 -5 4 -10 -5 -8 -13 -17 -15 -44 -9 -29 6 -34 5 -29 -9 6 -14 4 -14
-14 2 -12 11 -27 15 -38 11 -13 -5 -16 -4 -11 4 7 12 0 11 -41 -5 -34 -12 -44
-11 -50 3 -4 11 -10 11 -38 0 -18 -8 -35 -12 -38 -10 -2 3 -14 7 -26 9 -13 2
-32 7 -44 10 -17 5 -19 4 -7 -4 12 -8 12 -11 -3 -17 -10 -3 -21 -4 -24 0 -3 3
-13 0 -21 -7 -13 -10 -15 -9 -9 7 7 17 6 17 -9 5 -13 -11 -18 -11 -21 -1 -3 6
-9 12 -14 12 -4 0 -5 -8 -2 -17 6 -16 5 -16 -10 -4 -15 12 -17 12 -11 -4 7
-17 6 -17 -18 -1 -21 13 -27 14 -31 4 -4 -8 -6 -7 -6 4 -1 21 -31 13 -31 -8 0
-8 -4 -14 -10 -14 -5 0 -10 6 -10 14 0 8 -7 17 -16 20 -22 8 -26 8 -20 -3 9
-14 -5 -42 -16 -35 -6 4 -6 9 2 14 7 5 0 9 -20 12 -19 3 -34 0 -36 -7 -5 -12
-32 -14 -50 -3 -5 4 -22 5 -37 4 -15 -2 -27 0 -27 4 0 4 -6 7 -12 7 -7 0 -21
4 -31 8 -13 5 -16 3 -12 -8 8 -19 -20 -30 -34 -13 -12 15 -62 9 -73 -8 -5 -7
-8 -7 -8 -1 0 12 -99 13 -118 1 -7 -4 -15 -1 -18 8 -7 19 -35 21 -52 4 -9 -9
-12 -643 -12 -2790 l0 -2778 4000 0 4000 0 0 2848 c0 1602 -4 2841 -9 2833 -7
-11 -9 -11 -14 0 -5 11 -8 10 -17 -3 -13 -21 -40 -24 -40 -5 0 8 -4 7 -11 -3
-8 -11 -12 -12 -16 -2 -2 6 -17 12 -31 12 -20 0 -23 -3 -13 -9 8 -5 -11 -7
-50 -5 -35 3 -67 10 -71 17 -6 9 -12 7 -22 -6 -9 -12 -16 -14 -21 -8 -3 6 -11
11 -16 11 -6 0 -7 -4 -4 -10 9 -15 -2 -12 -19 6 -10 9 -16 11 -16 4 0 -7 -8
-9 -21 -5 -16 5 -19 4 -14 -5 6 -10 4 -11 -6 -4 -20 13 -62 13 -78 0 -11 -8
-13 -8 -7 2 4 7 2 12 -6 13 -29 3 -64 -3 -75 -13 -7 -5 -21 -7 -32 -3 -13 4
-23 0 -31 -12 -10 -15 -11 -16 -6 -1 4 12 1 15 -11 11 -8 -3 -19 0 -24 8 -8
12 -10 12 -18 0 -6 -9 -11 -10 -15 -2 -4 6 -15 11 -24 11 -14 0 -15 -2 -2 -10
19 -12 8 -22 -14 -14 -9 4 -15 13 -12 20 7 18 -3 17 -39 -6z m-3012 -2011 c31
-16 185 -182 196 -211 2 -5 32 -37 67 -70 35 -34 61 -65 58 -70 -8 -13 35 -58
55 -58 12 0 13 -2 4 -8 -9 -6 39 -58 150 -168 308 -300 407 -394 417 -394 6 0
10 -5 10 -10 0 -6 42 -50 93 -98 50 -48 122 -116 158 -152 125 -123 137 -134
136 -114 -4 42 33 22 107 -61 80 -87 88 -114 16 -49 -22 20 -43 34 -47 30 -4
-3 -20 6 -37 21 -17 16 -24 20 -17 11 7 -9 11 -25 9 -35 -4 -19 -21 -4 -282
249 -101 98 -132 123 -133 108 -1 -11 3 -20 8 -20 6 0 110 -99 231 -220 169
-169 216 -221 204 -226 -18 -7 -48 24 -39 40 4 5 1 6 -6 2 -7 -4 -36 16 -74
52 -34 32 -69 63 -78 68 -18 10 -177 155 -297 272 -41 39 -83 72 -92 72 -9 0
-20 3 -25 8 -6 4 42 -43 106 -105 126 -122 166 -175 145 -192 -7 -6 -22 -8
-34 -4 -38 9 -24 -13 45 -77 52 -47 72 -60 89 -56 21 6 33 -4 95 -82 9 -11 4
-16 -14 -13 -5 1 1 -12 13 -29 12 -16 17 -30 11 -30 -6 0 -11 -9 -11 -19 0
-22 47 -64 62 -55 5 3 29 -13 53 -37 63 -61 88 -71 35 -13 -54 58 -36 46 45
-31 33 -31 71 -64 85 -73 42 -28 183 -148 225 -191 41 -43 30 -58 -13 -18 -28
24 -22 10 14 -40 13 -17 24 -37 24 -43 0 -6 14 -32 32 -58 18 -26 24 -41 15
-33 -27 21 -20 0 10 -31 17 -18 24 -32 17 -36 -5 -4 -11 -20 -12 -36 -1 -16
-3 -31 -5 -32 -1 -2 -45 18 -98 44 -76 38 -104 57 -138 100 -24 29 -46 50 -49
47 -3 -3 0 -11 6 -17 20 -20 14 -28 -19 -28 -46 0 -88 30 -114 82 -13 25 -22
48 -20 50 2 2 -11 21 -30 43 -18 22 -37 36 -41 32 -5 -4 -3 -12 5 -16 7 -5 12
-10 11 -12 -2 -2 1 -27 4 -55 6 -43 15 -58 49 -91 70 -67 378 -303 396 -303
16 0 112 -92 137 -131 18 -28 33 -40 59 -45 34 -6 65 -35 65 -61 0 -20 -18
-16 -56 14 l-35 26 6 -25 c6 -24 4 -26 -22 -24 -16 1 -46 11 -65 23 -20 12
-39 19 -42 16 -7 -7 4 -55 15 -67 5 -6 9 -19 9 -30 0 -11 10 -30 22 -43 12
-13 16 -23 10 -23 -6 0 -26 18 -43 40 -18 22 -36 40 -41 40 -13 0 -9 -27 7
-40 8 -7 28 -37 44 -66 l29 -55 -60 63 c-45 47 -59 67 -55 85 3 15 -1 24 -12
28 -24 7 -46 46 -31 55 13 8 11 12 -49 105 -14 22 -55 72 -91 112 -92 101
-125 144 -126 164 -1 10 -19 37 -41 59 l-40 41 -1 -52 c0 -29 6 -68 14 -88 9
-21 14 -61 13 -99 -2 -63 -3 -63 -41 -83 -38 -20 -39 -20 -66 -1 -15 11 -47
28 -72 39 -46 21 -88 58 -77 69 3 4 27 -6 52 -21 26 -15 49 -24 52 -21 7 7
-146 154 -154 147 -3 -3 -3 0 1 7 9 14 -72 94 -86 86 -5 -3 -6 -10 -3 -15 4
-5 -3 -9 -13 -9 -24 0 -88 26 -97 39 -9 16 -65 40 -79 35 -7 -3 -30 16 -50 41
-21 25 -43 45 -51 45 -7 0 -16 10 -19 23 -3 12 -29 47 -56 77 -40 44 -53 52
-60 40 -7 -12 -10 -12 -16 4 -4 10 -33 46 -65 79 -32 33 -75 82 -96 110 -21
27 -84 96 -140 153 -57 57 -103 106 -103 109 0 6 -38 45 -45 45 -2 0 -28 24
-57 53 -30 28 -97 92 -151 141 -53 49 -97 94 -97 99 0 6 11 0 25 -13 14 -13
25 -20 25 -15 0 5 19 -9 41 -30 78 -75 24 -7 -81 102 -92 95 -180 188 -297
315 -19 21 -33 45 -31 54 2 11 21 -6 57 -50 29 -37 63 -72 75 -78 20 -11 20
-10 6 8 -23 30 -35 43 -125 138 -57 60 -85 97 -85 113 0 12 4 23 10 23 13 0
130 114 130 127 0 6 7 14 16 17 14 5 55 83 60 114 1 8 21 32 43 54 23 22 41
44 41 49 0 5 4 9 8 9 5 0 32 28 61 63 81 95 165 186 174 187 5 0 18 -5 30 -11z"/>
<path d="M3797 2858 c4 -9 27 -36 50 -61 34 -36 40 -47 29 -56 -7 -6 -16 -8
-19 -4 -4 3 -7 3 -7 0 0 -3 37 -46 83 -94 129 -136 146 -153 157 -153 5 0 10
-7 10 -16 0 -10 6 -14 14 -11 7 3 19 0 25 -6 6 -6 14 -8 17 -4 4 4 -12 29 -34
56 -23 27 -42 52 -42 56 0 3 -47 54 -104 113 -57 59 -123 127 -146 152 -23 25
-38 38 -33 28z"/>
</g>
</svg>
